<svg xmlns="http://www.w3.org/2000/svg" xmlns:xlink="http://www.w3.org/1999/xlink" version="1.1" x="0px" y="0px" viewBox="0 0 64 80" style="enable-background:new 0 0 64 64;" xml:space="preserve"><g><rect x="29" y="55" width="2" height="2"/><path d="M31,47.184c-0.847,0.302-1.514,0.969-1.816,1.816H31V47.184z"/><path d="M26.344,34.127L25.387,37h3.908C28.46,36.244,27.439,35.272,26.344,34.127z"/><polygon points="29.219,41 29.719,39 26.281,39 26.781,41  "/><rect x="33" y="51" width="2" height="2"/><rect x="33" y="55" width="2" height="2"/><path d="M33,47.184V49h1.816C34.514,48.153,33.847,47.486,33,47.184z"/><rect x="29" y="51" width="2" height="2"/><polygon points="34.781,41 37.219,41 37.719,39 34.281,39  "/><path d="M32,36.703c1.816-1.539,7.206-6.381,10.446-12.194C41.554,23.606,41,22.367,41,21c0-0.475,0.048-0.95,0.141-1.416   l-0.252-0.142l-2.152,0.861C37.315,22.524,34.832,24,32,24c-4.418,0-8-3.582-8-8s3.582-8,8-8c2.832,0,5.315,1.476,6.737,3.696   l2.153,0.862l0.252-0.142C41.048,11.949,41,11.474,41,11c0-1.195,0.439-2.278,1.14-3.139C39.704,4.813,36.012,3,32,3   c-7.168,0-13,5.832-13,13C19,25.102,29.338,34.448,32,36.703z"/><polygon points="24.613,33 20.618,33 18.618,37 23.28,37  "/><polygon points="21.219,41 21.719,39 18.281,39 18.781,41  "/><path d="M43,57V43h-1.781l-0.999-4h-0.439l-0.999,4h-5.563l-0.979-3.917L32,39.272l-0.24-0.189L30.781,43h-5.563l-0.999-4h-0.439   l-0.999,4H21v14h6v-7c0-2.757,2.243-5,5-5s5,2.243,5,5v7H43z"/><polygon points="61,45 61,41 47.281,41 46.781,43 45,43 45,49 51,49 51,57 59,57 59,59 49,59 49,51 45,51 45,59 19,59 19,53 11,53    11,47 5,47 5,45 13,45 13,51 19,51 19,43 17.219,43 16.719,41 3,41 3,53 7,53 7,55 3,55 3,61 9,61 9,55 11,55 11,61 61,61 61,47    57,47 57,55 55,55 55,45  "/><path d="M37.652,34.115c-1.101,1.155-2.118,2.126-2.954,2.885h3.915L37.652,34.115z"/><polygon points="45.382,37 43.382,33 39.387,33 40.72,37  "/><polygon points="45.719,39 42.281,39 42.781,41 45.219,41  "/><path d="M43.558,13.352l-2.669,1.501l-8.399-4.724l-0.98,1.743L38.849,16l-7.339,4.128l0.98,1.743l8.399-4.724l2.669,1.501   l-0.005,0.01C43.191,19.382,43,20.192,43,21c0,1.654,1.346,3,3,3s3-1.346,3-3c0-0.978-0.529-1.883-1.381-2.362L42.929,16   l4.69-2.638C48.471,12.883,49,11.978,49,11c0-1.654-1.346-3-3-3s-3,1.346-3,3c0,0.808,0.191,1.618,0.553,2.342L43.558,13.352z    M45.304,19.631l1.335,0.75C46.861,20.507,47,20.744,47,21c0,0.551-0.448,1-1,1s-1-0.449-1-1   C45,20.529,45.104,20.058,45.304,19.631z M46,10c0.552,0,1,0.449,1,1c0,0.256-0.139,0.493-0.361,0.619l-1.335,0.75   C45.104,11.942,45,11.471,45,11C45,10.449,45.448,10,46,10z"/></g><text x="0" y="79" fill="#000000" font-size="5px" font-weight="bold" font-family="'Helvetica Neue', Helvetica, Arial-Unicode, Arial, Sans-serif">Created by Eucalyp</text><text x="0" y="84" fill="#000000" font-size="5px" font-weight="bold" font-family="'Helvetica Neue', Helvetica, Arial-Unicode, Arial, Sans-serif">from the Noun Project</text></svg>