<svg xmlns="http://www.w3.org/2000/svg" viewBox="0 0 64 80" x="0px" y="0px"><title>Scheduled Transaction</title><g data-name="Setting"><path d="M53,57H25a1,1,0,0,1,0-2H53a5,5,0,0,0,5-5V48.65A9,9,0,0,1,51,52H28a1,1,0,0,1,0-2H46.7l1.41-.94A2,2,0,0,0,49,47.39V45a4,4,0,0,1,4-4h2.76a2,2,0,0,0,1.41-.59l.83-.82V21H49.18a1,1,0,0,1,0-2H58V15a3,3,0,0,0-3-3H50a1,1,0,0,1,0-2h5a5,5,0,0,1,5,5V50A7,7,0,0,1,53,57Zm-3-7h1a7,7,0,0,0,7-7v-.69a4,4,0,0,1-2.24.69H53a2,2,0,0,0-2,2v2.39A4,4,0,0,1,50,50ZM14.38,56.75A10.38,10.38,0,1,1,24.75,46.38,10.38,10.38,0,0,1,14.38,56.75Zm0-18.75a8.38,8.38,0,1,0,8.37,8.38A8.39,8.39,0,0,0,14.38,38ZM11.25,50.5a1,1,0,0,1-.71-.29,1,1,0,0,1,0-1.42L13.38,46V41.69a1,1,0,0,1,2,0v4.69a1,1,0,0,1-.3.7L12,50.21A1,1,0,0,1,11.25,50.5ZM5,36a1,1,0,0,1-1-1V15a5,5,0,0,1,5-5h9V9a3,3,0,0,1,6,0v1H40V9a3,3,0,0,1,6,0v4a3,3,0,0,1-6,0V12H24v1a3,3,0,0,1-6,0V12H9a3,3,0,0,0-3,3v4H44.27a1,1,0,1,1,0,2H6V35A1,1,0,0,1,5,36ZM42,11v2a1,1,0,0,0,2,0V9a1,1,0,0,0-2,0ZM21,8a1,1,0,0,0-1,1v4a1,1,0,0,0,2,0V9A1,1,0,0,0,21,8Z"/></g><text x="0" y="79" fill="#000000" font-size="5px" font-weight="bold" font-family="'Helvetica Neue', Helvetica, Arial-Unicode, Arial, Sans-serif">Created by Aswell Studio</text><text x="0" y="84" fill="#000000" font-size="5px" font-weight="bold" font-family="'Helvetica Neue', Helvetica, Arial-Unicode, Arial, Sans-serif">from the Noun Project</text></svg>