<svg xmlns="http://www.w3.org/2000/svg" version="1.1" viewBox="-5.0 -10.0 110.0 135.0">
 <g fill-rule="evenodd">
  <path d="m82.531 73.059h-65.059c-0.42969 0-0.78125-0.35156-0.78125-0.78125v-6.1836c0-0.42969 0.35156-0.78125 0.78125-0.78125h65.059c0.42969 0 0.78125 0.35156 0.78125 0.78125v6.1836c0 0.42969-0.35156 0.78125-0.78125 0.78125zm-64.277-1.5625h63.496v-4.6211h-63.496z"/>
  <path d="m61.711 83.883h-0.003907-23.41c-0.3125 0-0.59766-0.1875-0.71875-0.47656s-0.0625-0.62109 0.15625-0.84766l10.453-10.824c0.14844-0.15234 0.35156-0.23828 0.5625-0.23828h2.5039c0.21094 0 0.41406 0.085937 0.5625 0.23828l10.406 10.777c0.16406 0.14453 0.26953 0.35547 0.26953 0.58984 0 0.42969-0.34766 0.78125-0.78125 0.78125zm-21.574-1.5625h19.73l-8.9453-9.2617h-1.8398z"/>
  <path d="m70.758 83.883h-41.512c-0.42969 0-0.78125-0.35156-0.78125-0.78125 0-0.42969 0.35156-0.78125 0.78125-0.78125h41.512c0.42969 0 0.78125 0.35156 0.78125 0.78125 0 0.42969-0.35156 0.78125-0.78125 0.78125z"/>
  <path d="m13.281 73.059c-0.42969 0-0.78125-0.35156-0.78125-0.78125v-14.113c0-0.42969 0.35156-0.78125 0.78125-0.78125s0.78125 0.35156 0.78125 0.78125v14.113c0 0.42969-0.35156 0.78125-0.78125 0.78125z"/>
  <path d="m86.719 73.059c-0.42969 0-0.78125-0.35156-0.78125-0.78125v-14.113c0-0.42969 0.35156-0.78125 0.78125-0.78125s0.78125 0.35156 0.78125 0.78125v14.113c0 0.42969-0.35156 0.78125-0.78125 0.78125z"/>
  <path d="m82.531 66.875c-0.42969 0-0.78125-0.35156-0.78125-0.78125v-34.031h-14.477c-0.42969 0-0.78125-0.35156-0.78125-0.78125s0.35156-0.78125 0.78125-0.78125h15.258c0.42969 0 0.78125 0.35156 0.78125 0.78125v34.816c0 0.42969-0.35156 0.78125-0.78125 0.78125zm-65.059 0c-0.42969 0-0.78125-0.35156-0.78125-0.78125v-34.812c0-0.42969 0.35156-0.78125 0.78125-0.78125h14.238c0.42969 0 0.78125 0.35156 0.78125 0.78125s-0.35156 0.78125-0.78125 0.78125h-13.457v34.035c0 0.42969-0.35156 0.78125-0.78125 0.78125z"/>
  <path d="m57.094 63.074h-14.184c-0.42969 0-0.78125-0.35156-0.78125-0.78125 0-0.42969 0.35156-0.78125 0.78125-0.78125h14.184c0.42969 0 0.78125 0.35156 0.78125 0.78125 0 0.42969-0.35156 0.78125-0.78125 0.78125z"/>
  <path d="m21.617 54.09c-0.42969 0-0.78125-0.35156-0.78125-0.78125v-18.188c0-0.42969 0.35156-0.78125 0.78125-0.78125 0.42969 0 0.78125 0.35156 0.78125 0.78125v18.188c0 0.43359-0.35156 0.78125-0.78125 0.78125z"/>
  <path d="m78.383 54.09c-0.42969 0-0.78125-0.35156-0.78125-0.78125v-18.188c0-0.42969 0.35156-0.78125 0.78125-0.78125 0.42969 0 0.78125 0.35156 0.78125 0.78125v18.188c0 0.43359-0.35156 0.78125-0.78125 0.78125z"/>
  <path d="m50 53.078c-10.191 0-18.48-8.2891-18.48-18.48s8.2891-18.48 18.48-18.48 18.48 8.2891 18.48 18.48-8.2891 18.48-18.48 18.48zm0-35.398c-9.3281 0-16.918 7.5898-16.918 16.918s7.5898 16.918 16.918 16.918 16.918-7.5898 16.918-16.918-7.5898-16.918-16.918-16.918z"/>
  <path d="m65.508 58.57h-31.02c-0.42969 0-0.78125-0.35156-0.78125-0.78125 0-0.42969 0.35156-0.78125 0.78125-0.78125h31.02c0.42969 0 0.78125 0.35156 0.78125 0.78125 0 0.42969-0.35156 0.78125-0.78125 0.78125z"/>
  <path d="m46.902 40.82c-0.20703 0-0.40625-0.082031-0.55078-0.23047l-4.6836-4.6836c-0.30469-0.30469-0.30469-0.80078 0-1.1055 0.30469-0.30469 0.80078-0.30469 1.1055 0l4.1328 4.1328 10.328-10.328c0.30469-0.30469 0.80078-0.30469 1.1055 0 0.30469 0.30469 0.30469 0.80078 0 1.1055l-10.879 10.879c-0.14844 0.14844-0.34766 0.23047-0.55469 0.23047z"/>
  <path d="m50 48.875c-7.8711 0-14.277-6.4062-14.277-14.277s6.4062-14.277 14.277-14.277 14.277 6.4062 14.277 14.277-6.4062 14.277-14.277 14.277zm0-26.992c-7.0117 0-12.715 5.7031-12.715 12.715 0 7.0117 5.7031 12.715 12.715 12.715s12.715-5.7031 12.715-12.715c0-7.0117-5.7031-12.715-12.715-12.715z"/>
 </g>
<text x="0.0" y="117.5" font-size="5.0" font-weight="bold" font-family="Arbeit Regular, Helvetica, Arial-Unicode, Arial, Sans-serif" fill="#000000">Created by Jamil Akhtar</text><text x="0.0" y="122.5" font-size="5.0" font-weight="bold" font-family="Arbeit Regular, Helvetica, Arial-Unicode, Arial, Sans-serif" fill="#000000">from Noun Project</text></svg>