<svg xmlns="http://www.w3.org/2000/svg" data-name="Layer 1" viewBox="0 0 95 118.75" x="0px" y="0px"><path d="M82.2,13.129c0-.033,0-.065-.006-.1a1.277,1.277,0,0,0-.137-.411c-.015-.028-.035-.052-.052-.079a1.262,1.262,0,0,0-.256-.295c-.016-.014-.024-.034-.041-.047s-.018-.007-.026-.013-.022-.023-.035-.032a1.309,1.309,0,0,0-.37-.167c-.033-.009-.064-.013-.1-.02a1.25,1.25,0,0,0-.371-.023.83.83,0,0,0-.087,0,1.253,1.253,0,0,0-.369.11L48.159,27.6a1.3,1.3,0,0,0-.166,2.244l6.3,4.288.366,11.56c0,.03.009.059.012.089s.007.05.011.076a1.3,1.3,0,0,0,.136.409c.011.019.023.036.035.055a1.28,1.28,0,0,0,.273.328l.028.019.011.012c.012.01.027.012.039.021a1.3,1.3,0,0,0,.3.159c.023.009.045.02.069.027a1.236,1.236,0,0,0,.358.058c.009,0,.018.005.027.005.029,0,.057-.008.086-.01a.983.983,0,0,0,.109-.005l13.817-2.1,7.583,5.114a1.29,1.29,0,0,0,.726.222,1.3,1.3,0,0,0,1.3-1.2L82.21,13.325A1.274,1.274,0,0,0,82.2,13.129ZM51.314,28.963,76.54,16.784l-19.4,25.2L56.87,33.39a1.3,1.3,0,0,0-.567-1.033ZM77.149,46.549,71,42.4a1.307,1.307,0,0,0-.727-.222,1.277,1.277,0,0,0-.194.015L58.959,43.883,79.3,17.456ZM20.421,25.279h4.854v4.855a1.3,1.3,0,0,0,1.3,1.3h9.211a1.3,1.3,0,0,0,1.3-1.3V25.279h4.855a1.3,1.3,0,0,0,1.3-1.3V14.77a1.3,1.3,0,0,0-1.3-1.3H37.084V8.616a1.3,1.3,0,0,0-1.3-1.3H26.574a1.3,1.3,0,0,0-1.3,1.3v4.855H20.421a1.3,1.3,0,0,0-1.3,1.3v9.21A1.3,1.3,0,0,0,20.421,25.279Zm1.3-9.21h4.854a1.3,1.3,0,0,0,1.3-1.3V9.915h6.613V14.77a1.3,1.3,0,0,0,1.3,1.3h4.856v6.613H35.785a1.3,1.3,0,0,0-1.3,1.3v4.855H27.873V23.98a1.3,1.3,0,0,0-1.3-1.3H21.72ZM51.962,50.561a1.3,1.3,0,0,1,.092,1.835L20.527,87.255A1.3,1.3,0,1,1,18.6,85.513l31.526-34.86A1.3,1.3,0,0,1,51.962,50.561ZM49.181,64.915,37.654,86.441a1.3,1.3,0,0,1-2.291-1.227L46.89,63.688a1.3,1.3,0,0,1,2.291,1.227ZM19.149,71.434a1.3,1.3,0,0,1-.833-2.3L36.788,53.722a1.3,1.3,0,1,1,1.664,1.994L19.98,71.132A1.292,1.292,0,0,1,19.149,71.434Zm54.544,2.807A10.812,10.812,0,0,1,54.966,63.428l8.287-14.353a1.3,1.3,0,1,1,2.25,1.3L57.216,64.727a8.214,8.214,0,1,0,14.227,8.215,1.3,1.3,0,1,1,2.25,1.3ZM23.561,56a10.684,10.684,0,0,1-8.791-4.546,10.988,10.988,0,0,1-1.8-8.309,10.334,10.334,0,0,1,4.442-6.776,1.3,1.3,0,0,1,1.438,2.164,7.755,7.755,0,0,0-3.327,5.091,8.241,8.241,0,0,0,12.841,8.3l19.78-13.135a1.3,1.3,0,1,1,1.438,2.164L29.806,54.091A11.276,11.276,0,0,1,23.561,56Z"/><text x="0" y="110" fill="#000000" font-size="5px" font-weight="bold" font-family="'Helvetica Neue', Helvetica, Arial-Unicode, Arial, Sans-serif">Created by Bahrul Ulum</text><text x="0" y="115" fill="#000000" font-size="5px" font-weight="bold" font-family="'Helvetica Neue', Helvetica, Arial-Unicode, Arial, Sans-serif">from the Noun Project</text></svg>